<mxfile host="app.diagrams.net" modified="2023-05-18T07:01:04.517Z" agent="Mozilla/5.0 (Windows NT 10.0; Win64; x64) AppleWebKit/537.36 (KHTML, like Gecko) Chrome/113.0.0.0 Safari/537.36" version="21.3.2" etag="pOIofctC1my7QqvUjdCj" type="github">
  <diagram name="Page-1" id="Nxkij6Z6pYt1NNV5dfEi">
    <mxGraphModel>
      <root>
        <mxCell id="0" />
        <mxCell id="1" parent="0" />
      </root>
    </mxGraphModel>
  </diagram>
</mxfile>
